<!--?xml version="1.0" standalone="no"?-->
              <svg id="sw-js-blob-svg" viewBox="0 0 100 100" xmlns="http://www.w3.org/2000/svg" version="1.1">
                    <defs> 
                        <linearGradient id="sw-gradient" x1="0" x2="1" y1="1" y2="0">
                            <stop id="stop1" stop-color="rgba(232, 232, 232, 1)" offset="0%"></stop>
                            <stop id="stop2" stop-color="rgba(235.766, 234.317, 231.925, 1)" offset="100%"></stop>
                        </linearGradient>
                    </defs>
                <path fill="url(#sw-gradient)" d="M28.2,-33.1C35.3,-27.7,38.9,-17.6,39.4,-7.9C40,1.8,37.6,11,32.3,17.3C27.1,23.6,19,26.9,10.4,31.1C1.8,35.3,-7.4,40.5,-14.4,38.4C-21.4,36.4,-26.2,27.1,-30.8,18.2C-35.3,9.3,-39.7,0.8,-38.7,-7.2C-37.8,-15.2,-31.5,-22.6,-24.1,-27.9C-16.8,-33.3,-8.4,-36.6,1.1,-37.9C10.6,-39.2,21.1,-38.5,28.2,-33.1Z" width="100%" height="100%" transform="translate(50 50)" stroke-width="0" style="transition: all 0.3s ease 0s;" stroke="url(#sw-gradient)"></path>
              </svg>